<svg xmlns="http://www.w3.org/2000/svg" xmlns:xlink="http://www.w3.org/1999/xlink" width="500" zoomAndPan="magnify" viewBox="0 0 375 374.999991" height="500" preserveAspectRatio="xMidYMid meet" version="1.0"><defs><g/><clipPath id="1999189298"><path d="M 11.007812 13.394531 L 356 13.394531 L 356 356.824219 L 11.007812 356.824219 Z M 11.007812 13.394531 " clip-rule="nonzero"/></clipPath><clipPath id="a3655c13a1"><path d="M 30.75 0 L 344.25 0 C 352.40625 0 360.226562 3.238281 365.992188 9.007812 C 371.761719 14.773438 375 22.59375 375 30.75 L 375 344.25 C 375 352.40625 371.761719 360.226562 365.992188 365.992188 C 360.226562 371.761719 352.40625 375 344.25 375 L 30.75 375 C 22.59375 375 14.773438 371.761719 9.007812 365.992188 C 3.238281 360.226562 0 352.40625 0 344.25 L 0 30.75 C 0 22.59375 3.238281 14.773438 9.007812 9.007812 C 14.773438 3.238281 22.59375 0 30.75 0 Z M 30.75 0 " clip-rule="nonzero"/></clipPath><clipPath id="149bbe87f0"><path d="M 50.890625 49.128906 L 327.640625 49.128906 L 327.640625 325.878906 L 50.890625 325.878906 Z M 50.890625 49.128906 " clip-rule="nonzero"/></clipPath><clipPath id="7ed44d079b"><path d="M 81.640625 49.128906 L 296.878906 49.128906 C 305.035156 49.128906 312.855469 52.367188 318.621094 58.132812 C 324.390625 63.898438 327.628906 71.722656 327.628906 79.875 L 327.628906 295.117188 C 327.628906 303.273438 324.390625 311.09375 318.621094 316.859375 C 312.855469 322.625 305.035156 325.867188 296.878906 325.867188 L 81.640625 325.867188 C 73.484375 325.867188 65.664062 322.625 59.898438 316.859375 C 54.128906 311.09375 50.890625 303.273438 50.890625 295.117188 L 50.890625 79.875 C 50.890625 71.722656 54.128906 63.898438 59.898438 58.132812 C 65.664062 52.367188 73.484375 49.128906 81.640625 49.128906 Z M 81.640625 49.128906 " clip-rule="nonzero"/></clipPath><clipPath id="737a042eab"><path d="M 50.289062 177.421875 L 75.875 177.421875 L 75.875 197.578125 L 50.289062 197.578125 Z M 50.289062 177.421875 " clip-rule="nonzero"/></clipPath><clipPath id="bf1fb513d8"><path d="M 299.117188 155.324219 L 328.085938 155.324219 L 328.085938 222.355469 L 299.117188 222.355469 Z M 299.117188 155.324219 " clip-rule="nonzero"/></clipPath><clipPath id="0a594eddf0"><path d="M 90.894531 87.011719 L 124.191406 87.011719 L 124.191406 120.308594 L 90.894531 120.308594 Z M 90.894531 87.011719 " clip-rule="nonzero"/></clipPath><clipPath id="951fe8a274"><path d="M 107.542969 87.011719 C 98.347656 87.011719 90.894531 94.464844 90.894531 103.660156 C 90.894531 112.851562 98.347656 120.308594 107.542969 120.308594 C 116.738281 120.308594 124.191406 112.851562 124.191406 103.660156 C 124.191406 94.464844 116.738281 87.011719 107.542969 87.011719 Z M 107.542969 87.011719 " clip-rule="nonzero"/></clipPath><clipPath id="e33ccaeb32"><path d="M 254.335938 87.011719 L 287.632812 87.011719 L 287.632812 120.308594 L 254.335938 120.308594 Z M 254.335938 87.011719 " clip-rule="nonzero"/></clipPath><clipPath id="88776f070d"><path d="M 270.984375 87.011719 C 261.789062 87.011719 254.335938 94.464844 254.335938 103.660156 C 254.335938 112.851562 261.789062 120.308594 270.984375 120.308594 C 280.175781 120.308594 287.632812 112.851562 287.632812 103.660156 C 287.632812 94.464844 280.175781 87.011719 270.984375 87.011719 Z M 270.984375 87.011719 " clip-rule="nonzero"/></clipPath><clipPath id="2fa5956096"><path d="M 133.011719 93.890625 L 245.511719 93.890625 L 245.511719 206.390625 L 133.011719 206.390625 Z M 133.011719 93.890625 " clip-rule="nonzero"/></clipPath><clipPath id="203a9c562d"><path d="M 189.261719 93.890625 C 158.195312 93.890625 133.011719 119.074219 133.011719 150.140625 C 133.011719 181.207031 158.195312 206.390625 189.261719 206.390625 C 220.328125 206.390625 245.511719 181.207031 245.511719 150.140625 C 245.511719 119.074219 220.328125 93.890625 189.261719 93.890625 Z M 189.261719 93.890625 " clip-rule="nonzero"/></clipPath><clipPath id="3c9b172007"><path d="M 102.960938 300.019531 L 116.417969 300.019531 L 116.417969 330.882812 L 102.960938 330.882812 Z M 102.960938 300.019531 " clip-rule="nonzero"/></clipPath></defs><g clip-path="url(#1999189298)"><path fill="#ffffff" d="M 11.007812 13.394531 L 355.777344 13.394531 L 355.777344 356.824219 L 11.007812 356.824219 Z M 11.007812 13.394531 " fill-opacity="1" fill-rule="nonzero"/></g><g clip-path="url(#a3655c13a1)"><path stroke-linecap="butt" transform="matrix(0.75, 0, 0, 0.75, 0.0000045, -0.000000000000021316)" fill="none" stroke-linejoin="miter" d="M 40.999999 0.000000000000028422 L 459.000054 0.000000000000028422 C 469.875055 0.000000000000028422 480.30214 4.317709 487.989641 12.010418 C 495.68235 19.697919 500.000059 30.125004 500.000059 41.000005 L 500.000059 459.00006 C 500.000059 469.875061 495.68235 480.302146 487.989641 487.989647 C 480.30214 495.682356 469.875055 500.000065 459.000054 500.000065 L 40.999999 500.000065 C 30.124998 500.000065 19.697913 495.682356 12.010412 487.989647 C 4.317703 480.302146 -0.000006 469.875061 -0.000006 459.00006 L -0.000006 41.000005 C -0.000006 30.125004 4.317703 19.697919 12.010412 12.010418 C 19.697913 4.317709 30.124998 0.000000000000028422 40.999999 0.000000000000028422 Z M 40.999999 0.000000000000028422 " stroke="#2563eb" stroke-width="62" stroke-opacity="1" stroke-miterlimit="4"/></g><g clip-path="url(#149bbe87f0)"><g clip-path="url(#7ed44d079b)"><path stroke-linecap="butt" transform="matrix(0.75, 0, 0, 0.75, 50.890432, 49.127253)" fill="none" stroke-linejoin="miter" d="M 41.000261 0.00220463 L 327.984654 0.00220463 C 338.859655 0.00220463 349.286739 4.319913 356.97424 12.007414 C 364.666949 19.694914 368.984657 30.127207 368.984657 40.996999 L 368.984657 327.986601 C 368.984657 338.861602 364.666949 349.288686 356.97424 356.976186 C 349.286739 364.663687 338.859655 368.986604 327.984654 368.986604 L 41.000261 368.986604 C 30.12526 368.986604 19.698176 364.663687 12.010675 356.976186 C 4.317967 349.288686 0.000257922 338.861602 0.000257922 327.986601 L 0.000257922 40.996999 C 0.000257922 30.127207 4.317967 19.694914 12.010675 12.007414 C 19.698176 4.319913 30.12526 0.00220463 41.000261 0.00220463 Z M 41.000261 0.00220463 " stroke="#2563eb" stroke-width="64" stroke-opacity="1" stroke-miterlimit="4"/></g></g><g clip-path="url(#737a042eab)"><path fill="#ffffff" d="M 50.289062 177.421875 L 75.882812 177.421875 L 75.882812 197.578125 L 50.289062 197.578125 Z M 50.289062 177.421875 " fill-opacity="1" fill-rule="nonzero"/></g><g clip-path="url(#bf1fb513d8)"><path fill="#ffffff" d="M 299.117188 155.324219 L 328.085938 155.324219 L 328.085938 222.316406 L 299.117188 222.316406 Z M 299.117188 155.324219 " fill-opacity="1" fill-rule="nonzero"/></g><g clip-path="url(#0a594eddf0)"><g clip-path="url(#951fe8a274)"><path fill="#2563eb" d="M 90.894531 87.011719 L 124.191406 87.011719 L 124.191406 120.308594 L 90.894531 120.308594 Z M 90.894531 87.011719 " fill-opacity="1" fill-rule="nonzero"/></g></g><g clip-path="url(#e33ccaeb32)"><g clip-path="url(#88776f070d)"><path fill="#2563eb" d="M 254.335938 87.011719 L 287.632812 87.011719 L 287.632812 120.308594 L 254.335938 120.308594 Z M 254.335938 87.011719 " fill-opacity="1" fill-rule="nonzero"/></g></g><g clip-path="url(#2fa5956096)"><g clip-path="url(#203a9c562d)"><path stroke-linecap="butt" transform="matrix(0.75, 0, 0, 0.75, 133.01317, 93.889484)" fill="none" stroke-linejoin="miter" d="M 74.99807 0.00152102 C 33.576192 0.00152102 -0.00193522 33.579648 -0.00193522 75.001526 C -0.00193522 116.423404 33.576192 150.001531 74.99807 150.001531 C 116.419947 150.001531 149.998075 116.423404 149.998075 75.001526 C 149.998075 33.579648 116.419947 0.00152102 74.99807 0.00152102 Z M 74.99807 0.00152102 " stroke="#2563eb" stroke-width="36" stroke-opacity="1" stroke-miterlimit="4"/></g></g><g fill="#2563eb" fill-opacity="1"><g transform="translate(93.627296, 290.116731)"><g><path d="M 4.015625 -70.234375 L 15.046875 -70.234375 L 15.046875 -10.03125 L 33.21875 -10.03125 L 33.21875 0 L 4.015625 0 Z M 4.015625 -70.234375 "/></g></g></g><g fill="#2563eb" fill-opacity="1"><g transform="translate(127.842422, 290.116731)"><g><path d="M 14.546875 -70.234375 L 14.546875 -16.0625 C 14.546875 -13.507812 15.0625 -11.734375 16.09375 -10.734375 C 17.132812 -9.734375 18.523438 -9.234375 20.265625 -9.234375 C 22.003906 -9.234375 23.390625 -9.734375 24.421875 -10.734375 C 25.460938 -11.734375 25.984375 -13.507812 25.984375 -16.0625 L 25.984375 -70.234375 L 36.421875 -70.234375 L 36.421875 -16.75 C 36.421875 -11.070312 35.03125 -6.707031 32.25 -3.65625 C 29.476562 -0.613281 25.382812 0.90625 19.96875 0.90625 C 14.550781 0.90625 10.453125 -0.613281 7.671875 -3.65625 C 4.898438 -6.707031 3.515625 -11.070312 3.515625 -16.75 L 3.515625 -70.234375 Z M 14.546875 -70.234375 "/></g></g></g><g fill="#2563eb" fill-opacity="1"><g transform="translate(167.776783, 290.116731)"><g><path d="M 36.015625 -26.1875 L 36.015625 -16.859375 C 36.015625 -11.171875 34.625 -6.804688 31.84375 -3.765625 C 29.070312 -0.722656 24.976562 0.796875 19.5625 0.796875 C 14.144531 0.796875 10.046875 -0.722656 7.265625 -3.765625 C 4.492188 -6.804688 3.109375 -11.171875 3.109375 -16.859375 L 3.109375 -53.390625 C 3.109375 -59.066406 4.492188 -63.425781 7.265625 -66.46875 C 10.046875 -69.519531 14.144531 -71.046875 19.5625 -71.046875 C 24.976562 -71.046875 29.070312 -69.519531 31.84375 -66.46875 C 34.625 -63.425781 36.015625 -59.066406 36.015625 -53.390625 L 36.015625 -46.5625 L 25.59375 -46.5625 L 25.59375 -54.078125 C 25.59375 -56.617188 25.070312 -58.410156 24.03125 -59.453125 C 23 -60.492188 21.613281 -61.015625 19.875 -61.015625 C 18.132812 -61.015625 16.742188 -60.492188 15.703125 -59.453125 C 14.671875 -58.410156 14.15625 -56.617188 14.15625 -54.078125 L 14.15625 -16.15625 C 14.15625 -13.613281 14.671875 -11.835938 15.703125 -10.828125 C 16.742188 -9.828125 18.132812 -9.328125 19.875 -9.328125 C 21.613281 -9.328125 23 -9.828125 24.03125 -10.828125 C 25.070312 -11.835938 25.59375 -13.613281 25.59375 -16.15625 L 25.59375 -26.1875 Z M 36.015625 -26.1875 "/></g></g></g><g fill="#2563eb" fill-opacity="1"><g transform="translate(206.507098, 290.116731)"><g><path d="M 39.734375 0 L 28.59375 0 L 26.6875 -12.75 L 13.140625 -12.75 L 11.234375 0 L 1.109375 0 L 12.34375 -70.234375 L 28.5 -70.234375 Z M 14.546875 -22.28125 L 25.1875 -22.28125 L 19.875 -57.796875 Z M 14.546875 -22.28125 "/></g></g></g><g fill="#2563eb" fill-opacity="1"><g transform="translate(247.344493, 290.116731)"><g><path d="M 2.609375 -53.390625 C 2.609375 -59.066406 3.960938 -63.425781 6.671875 -66.46875 C 9.378906 -69.519531 13.441406 -71.046875 18.859375 -71.046875 C 24.285156 -71.046875 28.351562 -69.519531 31.0625 -66.46875 C 33.769531 -63.425781 35.125 -59.066406 35.125 -53.390625 L 35.125 -50.671875 L 24.6875 -50.671875 L 24.6875 -54.078125 C 24.6875 -56.617188 24.203125 -58.410156 23.234375 -59.453125 C 22.265625 -60.492188 20.910156 -61.015625 19.171875 -61.015625 C 17.429688 -61.015625 16.070312 -60.492188 15.09375 -59.453125 C 14.125 -58.410156 13.640625 -56.617188 13.640625 -54.078125 C 13.640625 -51.671875 14.175781 -49.546875 15.25 -47.703125 C 16.320312 -45.867188 17.660156 -44.128906 19.265625 -42.484375 C 20.867188 -40.847656 22.585938 -39.210938 24.421875 -37.578125 C 26.265625 -35.941406 27.988281 -34.148438 29.59375 -32.203125 C 31.207031 -30.265625 32.546875 -28.054688 33.609375 -25.578125 C 34.679688 -23.109375 35.21875 -20.203125 35.21875 -16.859375 C 35.21875 -11.171875 33.828125 -6.804688 31.046875 -3.765625 C 28.273438 -0.722656 24.179688 0.796875 18.765625 0.796875 C 13.347656 0.796875 9.25 -0.722656 6.46875 -3.765625 C 3.695312 -6.804688 2.3125 -11.171875 2.3125 -16.859375 L 2.3125 -21.671875 L 12.75 -21.671875 L 12.75 -16.15625 C 12.75 -13.613281 13.265625 -11.835938 14.296875 -10.828125 C 15.335938 -9.828125 16.726562 -9.328125 18.46875 -9.328125 C 20.207031 -9.328125 21.59375 -9.828125 22.625 -10.828125 C 23.664062 -11.835938 24.1875 -13.613281 24.1875 -16.15625 C 24.1875 -18.5625 23.648438 -20.679688 22.578125 -22.515625 C 21.503906 -24.359375 20.164062 -26.097656 18.5625 -27.734375 C 16.957031 -29.378906 15.234375 -31.019531 13.390625 -32.65625 C 11.554688 -34.300781 9.832031 -36.09375 8.21875 -38.03125 C 6.613281 -39.96875 5.273438 -42.171875 4.203125 -44.640625 C 3.140625 -47.117188 2.609375 -50.035156 2.609375 -53.390625 Z M 2.609375 -53.390625 "/></g></g></g><g clip-path="url(#3c9b172007)"><path fill="#ffffff" d="M 102.960938 300.019531 L 116.417969 300.019531 L 116.417969 330.871094 L 102.960938 330.871094 Z M 102.960938 300.019531 " fill-opacity="1" fill-rule="nonzero"/></g></svg>